<svg width="50" height="40" viewBox="0 0 50 40" fill="none" xmlns="http://www.w3.org/2000/svg">
<path d="M36.3636 40H13.6364V35.5556H18.1818V33.3333H4.54545C3.33992 33.3333 2.18377 32.8651 1.33133 32.0316C0.478895 31.1981 0 30.0676 0 28.8889V4.44444C0 3.2657 0.478895 2.13524 1.33133 1.30175C2.18377 0.468252 3.33992 0 4.54545 0H45.4545C46.6601 0 47.8162 0.468252 48.6687 1.30175C49.5211 2.13524 50 3.2657 50 4.44444V28.8889C50 30.0676 49.5211 31.1981 48.6687 32.0316C47.8162 32.8651 46.6601 33.3333 45.4545 33.3333H31.8182V35.5556H36.3636V40ZM4.54545 4.44444V28.8889H45.4545V4.44444H4.54545Z" fill="#7AB2F6"/>
</svg>
