<svg width="50" height="50" viewBox="0 0 50 50" fill="none" xmlns="http://www.w3.org/2000/svg">
<path d="M5.87744 31.0035C7.34007 29.1521 8.48844 27.0728 9.27666 24.8489L9.68877 23.6795L8.78965 22.9895C6.14434 20.9596 4.6875 18.2352 4.6875 15.3181C4.6875 9.45635 10.6454 4.6875 17.9688 4.6875C23.3563 4.6875 28.0046 7.26856 30.0856 10.9668C30.4721 10.948 30.8602 10.9375 31.25 10.9375C32.033 10.9375 32.8089 10.9755 33.5775 11.0515C32.7733 8.96797 31.3767 7.06602 29.4564 5.48887C26.3742 2.95693 22.2949 1.5625 17.9688 1.5625C13.6426 1.5625 9.56328 2.95693 6.48086 5.48887C3.30918 8.09424 1.5625 11.585 1.5625 15.3181C1.5625 18.8142 3.15937 22.1828 5.98145 24.7168C5.06049 26.9331 3.7148 28.9478 2.02021 30.6474L1.5625 31.105V34.375H3.125C6.01436 34.3746 8.86399 33.7018 11.4483 32.4097C11.165 31.3356 10.9989 30.2339 10.9531 29.124C9.38455 30.0433 7.66647 30.6795 5.87744 31.0035Z" fill="#7AB2F7" fill-opacity="0.8"/>
<path d="M43.77 38.3308C46.7504 35.6745 48.438 32.134 48.438 28.4599C48.438 24.5552 46.6101 20.9034 43.2908 18.1767C40.0603 15.5237 35.7844 14.0625 31.25 14.0625C26.7156 14.0625 22.4396 15.5237 19.2097 18.1769C15.8904 20.9034 14.0625 24.5552 14.0625 28.4599C14.0625 32.3645 15.8904 36.0163 19.2097 38.7431C22.4396 41.3962 26.7156 42.8573 31.25 42.8573C31.8542 42.8573 32.4621 42.8307 33.0649 42.7776L34.0948 43.6703C37.6428 46.7448 42.1802 48.4373 46.875 48.4375H48.4375V45.1116L47.9799 44.6541C46.1746 42.8435 44.744 40.6948 43.77 38.3308ZM36.1415 41.3086L34.075 39.5175L33.3859 39.602C32.6773 39.6886 31.964 39.7321 31.25 39.7321C23.4961 39.7321 17.1875 34.6754 17.1875 28.4599C17.1875 22.2443 23.4961 17.1875 31.25 17.1875C39.0039 17.1875 45.3125 22.2442 45.3125 28.4599C45.3125 31.5565 43.7676 34.4476 40.9623 36.6003L40.0624 37.2908L40.4776 38.4661C41.3286 40.8665 42.5794 43.1056 44.177 45.0889C41.2017 44.5922 38.4211 43.2841 36.1415 41.3086Z" fill="#7AB2F7" fill-opacity="0.8"/>
<circle cx="24" cy="28" r="2" fill="#7AB2F7" fill-opacity="0.8"/>
<circle cx="31" cy="28" r="2" fill="#7AB2F7" fill-opacity="0.8"/>
<circle cx="38" cy="28" r="2" fill="#7AB2F7" fill-opacity="0.8"/>
</svg>
