<svg width="50" height="50" viewBox="0 0 50 50" fill="none" xmlns="http://www.w3.org/2000/svg">
<path d="M25 50C27.474 48.763 29.7282 47.526 31.7627 46.2891C33.7972 45.0521 35.612 43.7419 37.207 42.3584C38.8021 40.9749 40.21 39.7054 41.4307 38.5498C42.6514 37.3942 43.7093 35.9945 44.6045 34.3506C45.4997 32.7067 46.2565 31.307 46.875 30.1514C47.4935 28.9958 47.998 27.417 48.3887 25.415C48.7793 23.4131 49.0885 21.8018 49.3164 20.5811C49.5443 19.3604 49.707 17.5456 49.8047 15.1367C49.9023 12.7279 49.9593 10.8398 49.9756 9.47266C49.9919 8.10547 50 5.98958 50 3.125C42.0573 1.04167 33.724 0 25 0C16.3086 0 7.97526 1.04167 0 3.125C0 5.98958 0.00813293 8.11361 0.0244102 9.49707C0.0406876 10.8805 0.0976524 12.7686 0.195309 15.1611C0.292965 17.5537 0.455727 19.3685 0.68359 20.6055C0.911453 21.8424 1.2207 23.4538 1.61132 25.4395C2.00195 27.4251 2.50651 28.9958 3.125 30.1514C3.74348 31.307 4.50032 32.7067 5.3955 34.3506C6.29069 35.9945 7.34863 37.3942 8.56933 38.5498C9.79004 39.7054 11.1979 40.9749 12.793 42.3584C14.388 43.7419 16.2028 45.0521 18.2373 46.2891C20.2718 47.526 22.526 48.763 25 50ZM43.75 8.49609C43.75 11.3932 43.7337 13.5335 43.7012 14.917C43.6686 16.3005 43.5384 18.1315 43.3105 20.4102C43.0827 22.6888 42.7327 24.4303 42.2607 25.6348C41.7887 26.8392 41.1133 28.304 40.2344 30.0293C39.3555 31.7546 38.2487 33.2113 36.9141 34.3994C35.5794 35.5876 33.9193 36.8652 31.9336 38.2324C29.9479 39.5996 27.6367 40.918 25 42.1875C22.3633 40.918 20.0521 39.5996 18.0664 38.2324C16.0807 36.8652 14.4206 35.5876 13.0859 34.3994C11.7513 33.2113 10.6445 31.7546 9.76562 30.0293C8.88671 28.304 8.21126 26.8392 7.73925 25.6348C7.26725 24.4303 6.91731 22.6888 6.68945 20.4102C6.46159 18.1315 6.33138 16.3005 6.29882 14.917C6.26627 13.5335 6.25 11.3932 6.25 8.49609C12.207 6.9987 18.457 6.25 25 6.25C31.543 6.25 37.793 6.9987 43.75 8.49609Z" fill="#7AB2F6"/>
</svg>
